<mxfile host="app.diagrams.net" modified="2020-04-11T07:34:12.376Z" agent="5.0 (Windows NT 10.0; Win64; x64) AppleWebKit/537.36 (KHTML, like Gecko) Chrome/80.0.3987.163 Safari/537.36" etag="dNmnwhnS7nTsqoZ9Pcjs" version="12.9.10" type="github">
  <diagram name="Page-1" id="74b105a0-9070-1c63-61bc-23e55f88626e">
    <mxGraphModel dx="764" dy="332" grid="1" gridSize="10" guides="1" tooltips="1" connect="1" arrows="1" fold="1" page="1" pageScale="1.5" pageWidth="1169" pageHeight="826" background="none" math="0" shadow="0">
      <root>
        <mxCell id="0" style=";html=1;" />
        <mxCell id="1" style=";html=1;" parent="0" />
        <mxCell id="cP9qwYqqRlfdVrelAtgD-12" style="edgeStyle=orthogonalEdgeStyle;rounded=0;orthogonalLoop=1;jettySize=auto;html=1;entryX=0;entryY=0.5;entryDx=0;entryDy=0;" edge="1" parent="1" source="cP9qwYqqRlfdVrelAtgD-3" target="cP9qwYqqRlfdVrelAtgD-11">
          <mxGeometry relative="1" as="geometry" />
        </mxCell>
        <mxCell id="cP9qwYqqRlfdVrelAtgD-3" value="User Request&lt;br&gt;for&lt;br&gt;Specific Task" style="rounded=0;whiteSpace=wrap;html=1;" vertex="1" parent="1">
          <mxGeometry x="190" y="540" width="120" height="60" as="geometry" />
        </mxCell>
        <mxCell id="cP9qwYqqRlfdVrelAtgD-10" style="edgeStyle=orthogonalEdgeStyle;rounded=0;orthogonalLoop=1;jettySize=auto;html=1;entryX=0.453;entryY=-0.033;entryDx=0;entryDy=0;entryPerimeter=0;" edge="1" parent="1" source="cP9qwYqqRlfdVrelAtgD-4" target="cP9qwYqqRlfdVrelAtgD-3">
          <mxGeometry relative="1" as="geometry" />
        </mxCell>
        <mxCell id="cP9qwYqqRlfdVrelAtgD-4" value="" style="html=1;verticalLabelPosition=bottom;align=center;labelBackgroundColor=#ffffff;verticalAlign=top;strokeWidth=2;strokeColor=#0080F0;shadow=0;dashed=0;shape=mxgraph.ios7.icons.smartphone;fillColor=#8C7E91;" vertex="1" parent="1">
          <mxGeometry x="146" y="480" width="18" height="30" as="geometry" />
        </mxCell>
        <mxCell id="cP9qwYqqRlfdVrelAtgD-9" style="edgeStyle=orthogonalEdgeStyle;rounded=0;orthogonalLoop=1;jettySize=auto;html=1;entryX=0.453;entryY=1.05;entryDx=0;entryDy=0;entryPerimeter=0;" edge="1" parent="1" source="cP9qwYqqRlfdVrelAtgD-6" target="cP9qwYqqRlfdVrelAtgD-3">
          <mxGeometry relative="1" as="geometry" />
        </mxCell>
        <mxCell id="cP9qwYqqRlfdVrelAtgD-6" value="" style="shape=mxgraph.signs.tech.computer;html=1;fillColor=#000000;strokeColor=none;verticalLabelPosition=bottom;verticalAlign=top;align=center;" vertex="1" parent="1">
          <mxGeometry x="140" y="630" width="30" height="30" as="geometry" />
        </mxCell>
        <mxCell id="cP9qwYqqRlfdVrelAtgD-19" style="edgeStyle=orthogonalEdgeStyle;rounded=0;orthogonalLoop=1;jettySize=auto;html=1;entryX=0;entryY=0.5;entryDx=0;entryDy=0;" edge="1" parent="1" source="cP9qwYqqRlfdVrelAtgD-11" target="cP9qwYqqRlfdVrelAtgD-17">
          <mxGeometry relative="1" as="geometry">
            <mxPoint x="720" y="569.9999999999999" as="targetPoint" />
          </mxGeometry>
        </mxCell>
        <mxCell id="cP9qwYqqRlfdVrelAtgD-11" value="&lt;div style=&quot;text-align: left&quot;&gt;&lt;ul&gt;&lt;li&gt;&lt;span&gt;Angular 7 Dashboards&lt;/span&gt;&lt;/li&gt;&lt;li&gt;&lt;span&gt;&lt;div style=&quot;text-align: left&quot;&gt;&lt;span&gt;Stores in s3 bucket&lt;/span&gt;&lt;/div&gt;&lt;/span&gt;&lt;/li&gt;&lt;li&gt;&lt;div style=&quot;text-align: left&quot;&gt;&lt;span&gt;Image size manipulate&lt;/span&gt;&lt;/div&gt;&lt;/li&gt;&lt;li&gt;&lt;div style=&quot;text-align: left&quot;&gt;&lt;span&gt;Tasks related to an Image&lt;/span&gt;&lt;/div&gt;&lt;/li&gt;&lt;li&gt;&lt;div style=&quot;text-align: left&quot;&gt;&lt;span&gt;Example crop, size, re-size&lt;/span&gt;&lt;/div&gt;&lt;/li&gt;&lt;li&gt;&lt;div style=&quot;text-align: left&quot;&gt;&lt;span&gt;Transformations on I/p&amp;nbsp;&lt;/span&gt;&lt;/div&gt;&lt;/li&gt;&lt;li&gt;&lt;div style=&quot;text-align: left&quot;&gt;&lt;span&gt;Download &amp;amp; Upload&lt;/span&gt;&lt;/div&gt;&lt;/li&gt;&lt;/ul&gt;&lt;/div&gt;" style="rounded=0;whiteSpace=wrap;html=1;align=center;" vertex="1" parent="1">
          <mxGeometry x="370" y="490" width="190" height="160" as="geometry" />
        </mxCell>
        <mxCell id="cP9qwYqqRlfdVrelAtgD-13" value="http 2" style="text;html=1;align=center;verticalAlign=middle;resizable=0;points=[];autosize=1;" vertex="1" parent="1">
          <mxGeometry x="315" y="540" width="50" height="20" as="geometry" />
        </mxCell>
        <mxCell id="cP9qwYqqRlfdVrelAtgD-16" value="&lt;b&gt;&lt;font style=&quot;font-size: 11px&quot;&gt;FRONT-END&lt;/font&gt;&lt;/b&gt;" style="text;html=1;align=center;verticalAlign=middle;resizable=0;points=[];autosize=1;" vertex="1" parent="1">
          <mxGeometry x="425" y="660" width="80" height="20" as="geometry" />
        </mxCell>
        <mxCell id="cP9qwYqqRlfdVrelAtgD-22" style="edgeStyle=orthogonalEdgeStyle;rounded=0;orthogonalLoop=1;jettySize=auto;html=1;" edge="1" parent="1" source="cP9qwYqqRlfdVrelAtgD-17" target="cP9qwYqqRlfdVrelAtgD-11">
          <mxGeometry relative="1" as="geometry" />
        </mxCell>
        <mxCell id="cP9qwYqqRlfdVrelAtgD-45" style="edgeStyle=orthogonalEdgeStyle;rounded=0;orthogonalLoop=1;jettySize=auto;html=1;entryX=1;entryY=0.3;entryDx=0;entryDy=0;" edge="1" parent="1" source="cP9qwYqqRlfdVrelAtgD-17" target="cP9qwYqqRlfdVrelAtgD-35">
          <mxGeometry relative="1" as="geometry" />
        </mxCell>
        <mxCell id="cP9qwYqqRlfdVrelAtgD-17" value="&lt;b&gt;List of Common Operations&#39;s&lt;/b&gt;&lt;br&gt;&lt;div&gt;&lt;div style=&quot;text-align: left&quot;&gt;&lt;ul&gt;&lt;li&gt;Read and Write&lt;/li&gt;&lt;li&gt;Get and set Pixels&lt;/li&gt;&lt;li&gt;How to Create a random pixel image in Java?&lt;/li&gt;&lt;li&gt;Creating a mirror image&lt;/li&gt;&lt;li&gt;Face Detection&lt;/li&gt;&lt;li&gt;Watermarking an image&lt;/li&gt;&lt;li&gt;How to Change orientation of an image in Java&lt;/li&gt;&lt;li&gt;How to Convert Colored image to greyscale image conversion?&lt;/li&gt;&lt;li&gt;Converting Colored image to Negative image conversion?&lt;/li&gt;&lt;li&gt;Coloured to Red Green Blue Image Conversion&lt;/li&gt;&lt;li&gt;Coloured image to Sepia image conversion&lt;/li&gt;&lt;/ul&gt;&lt;/div&gt;&lt;/div&gt;" style="rounded=0;whiteSpace=wrap;html=1;" vertex="1" parent="1">
          <mxGeometry x="680" y="462.5" width="360" height="215" as="geometry" />
        </mxCell>
        <mxCell id="cP9qwYqqRlfdVrelAtgD-18" value="&lt;b&gt;&lt;font style=&quot;font-size: 11px&quot;&gt;BACK-END&lt;/font&gt;&lt;/b&gt;" style="text;html=1;align=center;verticalAlign=middle;resizable=0;points=[];autosize=1;" vertex="1" parent="1">
          <mxGeometry x="850" y="690" width="70" height="20" as="geometry" />
        </mxCell>
        <mxCell id="cP9qwYqqRlfdVrelAtgD-25" value="Request" style="text;html=1;align=center;verticalAlign=middle;resizable=0;points=[];autosize=1;" vertex="1" parent="1">
          <mxGeometry x="580" y="551" width="60" height="20" as="geometry" />
        </mxCell>
        <mxCell id="cP9qwYqqRlfdVrelAtgD-27" value="Response" style="text;html=1;align=center;verticalAlign=middle;resizable=0;points=[];autosize=1;" vertex="1" parent="1">
          <mxGeometry x="580" y="571" width="70" height="20" as="geometry" />
        </mxCell>
        <mxCell id="cP9qwYqqRlfdVrelAtgD-31" value="&lt;b&gt;Support of libraries&lt;br&gt;&amp;nbsp;in java&lt;br&gt;&lt;/b&gt;&lt;br&gt;&lt;div&gt;ImageJ&lt;/div&gt;&lt;div&gt;Fiji&lt;/div&gt;&lt;div&gt;Commons Imaging&lt;/div&gt;&lt;div&gt;ImageMagick&lt;/div&gt;&lt;div&gt;Endrov&lt;/div&gt;&lt;div&gt;LeadTools&lt;/div&gt;&lt;div&gt;&lt;b&gt;OpenCv&lt;/b&gt;&lt;/div&gt;" style="rounded=1;whiteSpace=wrap;html=1;" vertex="1" parent="1">
          <mxGeometry x="890" y="200" width="170" height="240" as="geometry" />
        </mxCell>
        <mxCell id="cP9qwYqqRlfdVrelAtgD-37" style="edgeStyle=orthogonalEdgeStyle;rounded=0;orthogonalLoop=1;jettySize=auto;html=1;exitX=0.5;exitY=1;exitDx=0;exitDy=0;" edge="1" parent="1" source="cP9qwYqqRlfdVrelAtgD-35">
          <mxGeometry relative="1" as="geometry">
            <mxPoint x="740.3333333333335" y="459.9999999999999" as="targetPoint" />
          </mxGeometry>
        </mxCell>
        <mxCell id="cP9qwYqqRlfdVrelAtgD-35" value="&lt;b&gt;&lt;font style=&quot;font-size: 11px&quot;&gt;Can be&amp;nbsp;&lt;br&gt;SQL / NO SQL&lt;/font&gt;&lt;/b&gt;" style="shape=datastore;whiteSpace=wrap;html=1;" vertex="1" parent="1">
          <mxGeometry x="700" y="240" width="80" height="120" as="geometry" />
        </mxCell>
        <mxCell id="cP9qwYqqRlfdVrelAtgD-41" value="" style="endArrow=none;html=1;" edge="1" parent="1">
          <mxGeometry width="50" height="50" relative="1" as="geometry">
            <mxPoint x="660" y="190" as="sourcePoint" />
            <mxPoint x="660" y="720" as="targetPoint" />
          </mxGeometry>
        </mxCell>
        <mxCell id="cP9qwYqqRlfdVrelAtgD-42" value="" style="endArrow=none;html=1;" edge="1" parent="1">
          <mxGeometry width="50" height="50" relative="1" as="geometry">
            <mxPoint x="660" y="190" as="sourcePoint" />
            <mxPoint x="1080" y="190" as="targetPoint" />
          </mxGeometry>
        </mxCell>
        <mxCell id="cP9qwYqqRlfdVrelAtgD-43" value="" style="endArrow=none;html=1;" edge="1" parent="1">
          <mxGeometry width="50" height="50" relative="1" as="geometry">
            <mxPoint x="1080" y="190" as="sourcePoint" />
            <mxPoint x="1080" y="720" as="targetPoint" />
          </mxGeometry>
        </mxCell>
        <mxCell id="cP9qwYqqRlfdVrelAtgD-44" value="" style="endArrow=none;html=1;" edge="1" parent="1">
          <mxGeometry width="50" height="50" relative="1" as="geometry">
            <mxPoint x="660" y="720" as="sourcePoint" />
            <mxPoint x="1080" y="720" as="targetPoint" />
          </mxGeometry>
        </mxCell>
        <mxCell id="cP9qwYqqRlfdVrelAtgD-46" value="&lt;b&gt;Data-Store&lt;/b&gt;" style="text;html=1;align=center;verticalAlign=middle;resizable=0;points=[];autosize=1;" vertex="1" parent="1">
          <mxGeometry x="660" y="220" width="80" height="20" as="geometry" />
        </mxCell>
        <mxCell id="cP9qwYqqRlfdVrelAtgD-47" value="" style="endArrow=none;dashed=1;html=1;" edge="1" parent="1" source="cP9qwYqqRlfdVrelAtgD-11">
          <mxGeometry width="50" height="50" relative="1" as="geometry">
            <mxPoint x="465" y="469.28932188134524" as="sourcePoint" />
            <mxPoint x="465" y="419.28932188134524" as="targetPoint" />
          </mxGeometry>
        </mxCell>
        <mxCell id="cP9qwYqqRlfdVrelAtgD-48" value="&lt;div&gt;&lt;b&gt;Other features provide&amp;nbsp;&lt;/b&gt;&lt;/div&gt;&lt;div&gt;&lt;b&gt;by Angular 7&lt;/b&gt;&lt;/div&gt;&lt;font&gt;&lt;br&gt;&lt;div&gt;&lt;ul&gt;&lt;li&gt;&lt;font&gt;&lt;div style=&quot;text-align: left&quot;&gt;&lt;b&gt;Multi-lingual Supports&lt;/b&gt; such as i8n&lt;/div&gt;&lt;/font&gt;&lt;/li&gt;&lt;li&gt;&lt;div style=&quot;text-align: left&quot;&gt;Improves &lt;b&gt;Application Architecture&lt;/b&gt;&lt;/div&gt;&lt;/li&gt;&lt;li&gt;&lt;div style=&quot;text-align: left&quot;&gt;Also, Provides &lt;b&gt;Web Testing feature&lt;/b&gt;&lt;/div&gt;&lt;/li&gt;&lt;li&gt;&lt;div style=&quot;text-align: left&quot;&gt;&lt;b&gt;Easy API Integration&lt;/b&gt;&amp;nbsp;&lt;/div&gt;&lt;/li&gt;&lt;li&gt;&lt;div style=&quot;text-align: left&quot;&gt;&lt;b&gt;CSV Parser&lt;/b&gt; ways&amp;nbsp;&lt;/div&gt;&lt;/li&gt;&lt;li&gt;&lt;div style=&quot;text-align: left&quot;&gt;&lt;b&gt;SDLC Modular&lt;/b&gt; support&lt;/div&gt;&lt;/li&gt;&lt;/ul&gt;&lt;/div&gt;&lt;/font&gt;" style="whiteSpace=wrap;html=1;aspect=fixed;" vertex="1" parent="1">
          <mxGeometry x="350" y="230" width="230" height="230" as="geometry" />
        </mxCell>
        <mxCell id="cP9qwYqqRlfdVrelAtgD-49" value="mobile" style="text;html=1;align=center;verticalAlign=middle;resizable=0;points=[];autosize=1;" vertex="1" parent="1">
          <mxGeometry x="130" y="510" width="50" height="20" as="geometry" />
        </mxCell>
        <mxCell id="cP9qwYqqRlfdVrelAtgD-50" value="web&lt;br&gt;" style="text;html=1;align=center;verticalAlign=middle;resizable=0;points=[];autosize=1;" vertex="1" parent="1">
          <mxGeometry x="130" y="660" width="40" height="20" as="geometry" />
        </mxCell>
        <mxCell id="cP9qwYqqRlfdVrelAtgD-51" value="&lt;b&gt;Third party&lt;br&gt;gateway&lt;/b&gt;" style="text;html=1;align=center;verticalAlign=middle;resizable=0;points=[];autosize=1;" vertex="1" parent="1">
          <mxGeometry x="40" y="580" width="80" height="30" as="geometry" />
        </mxCell>
        <mxCell id="cP9qwYqqRlfdVrelAtgD-54" style="edgeStyle=orthogonalEdgeStyle;rounded=0;orthogonalLoop=1;jettySize=auto;html=1;entryX=0;entryY=0.5;entryDx=0;entryDy=0;" edge="1" parent="1" source="cP9qwYqqRlfdVrelAtgD-52" target="cP9qwYqqRlfdVrelAtgD-3">
          <mxGeometry relative="1" as="geometry" />
        </mxCell>
        <mxCell id="cP9qwYqqRlfdVrelAtgD-52" value="" style="outlineConnect=0;dashed=0;verticalLabelPosition=bottom;verticalAlign=top;align=center;html=1;shape=mxgraph.aws3.api_gateway;fillColor=#D9A741;gradientColor=none;" vertex="1" parent="1">
          <mxGeometry x="55" y="521" width="50" height="50" as="geometry" />
        </mxCell>
        <mxCell id="cP9qwYqqRlfdVrelAtgD-55" value="&lt;b&gt;Read&lt;/b&gt;" style="text;html=1;align=center;verticalAlign=middle;resizable=0;points=[];autosize=1;" vertex="1" parent="1">
          <mxGeometry x="750" y="390" width="40" height="20" as="geometry" />
        </mxCell>
        <mxCell id="cP9qwYqqRlfdVrelAtgD-56" value="&lt;b&gt;Write&lt;/b&gt;" style="text;html=1;align=center;verticalAlign=middle;resizable=0;points=[];autosize=1;" vertex="1" parent="1">
          <mxGeometry x="800" y="280" width="50" height="20" as="geometry" />
        </mxCell>
        <mxCell id="cP9qwYqqRlfdVrelAtgD-58" value="" style="endArrow=none;dashed=1;html=1;exitX=0.837;exitY=-0.013;exitDx=0;exitDy=0;exitPerimeter=0;" edge="1" parent="1" source="cP9qwYqqRlfdVrelAtgD-17">
          <mxGeometry width="50" height="50" relative="1" as="geometry">
            <mxPoint x="985" y="462.5" as="sourcePoint" />
            <mxPoint x="981" y="441" as="targetPoint" />
          </mxGeometry>
        </mxCell>
        <mxCell id="cP9qwYqqRlfdVrelAtgD-59" value="&lt;font face=&quot;Georgia&quot; style=&quot;font-size: 24px&quot;&gt;Image Pre -processing&amp;nbsp; with Angular 7&lt;/font&gt;" style="text;html=1;align=center;verticalAlign=middle;resizable=0;points=[];autosize=1;" vertex="1" parent="1">
          <mxGeometry x="470" y="140" width="420" height="20" as="geometry" />
        </mxCell>
        <mxCell id="cP9qwYqqRlfdVrelAtgD-63" value="" style="endArrow=classic;html=1;exitX=-0.001;exitY=0.621;exitDx=0;exitDy=0;exitPerimeter=0;" edge="1" parent="1" source="cP9qwYqqRlfdVrelAtgD-11">
          <mxGeometry width="50" height="50" relative="1" as="geometry">
            <mxPoint x="310" y="670" as="sourcePoint" />
            <mxPoint x="310" y="590" as="targetPoint" />
            <Array as="points">
              <mxPoint x="330" y="590" />
            </Array>
          </mxGeometry>
        </mxCell>
        <mxCell id="cP9qwYqqRlfdVrelAtgD-65" value="&lt;font style=&quot;font-size: 11px&quot;&gt;response&lt;/font&gt;" style="text;html=1;align=center;verticalAlign=middle;resizable=0;points=[];autosize=1;" vertex="1" parent="1">
          <mxGeometry x="310" y="600" width="60" height="20" as="geometry" />
        </mxCell>
      </root>
    </mxGraphModel>
  </diagram>
</mxfile>
